# xmcd
#
# Track frame offsets:
#	150
#	17372
#	32653
#	50017
#	68979
#	83775
#	98175
#	113796
#	131742
#	148647
#	164534
#	182312
#	207857
#	234259
#	249850
#	268179
#	283884
#	298136
#	311780
#	326777
#
# Disc length: 4561 seconds
#
# Revision: 2
# Processed by: cddbd v1.5.2PL0 Copyright (c) Steve Scherf et al.
# Submitted via: EasyCDDAExtractor 15.3.0.1
#
DISCID=2811cf14
DTITLE=Gloria Trevi - Una Rosa Blu (Deluxe Edition)
DYEAR=2008
DGENRE=Latin
TTITLE0=Psicofonia
TTITLE1=Pruebamelo
TTITLE2=Lo Que Una Chica Por Amor Es Capaz
TTITLE3=Una Rosa Azul (Una Rosa Blu)
TTITLE4=Inmaculada
TTITLE5=Doña Pudor
TTITLE6=La Vida Se Va
TTITLE7=El Favor De La Soledad
TTITLE8=La Calle De La Amargura
TTITLE9=Cinco Minutos
TTITLE10=Lo Que Te Toca (Con La Participacion De Olga Tañon)
TTITLE11=Psicofonia (Remix)
TTITLE12=Doña Pudor (Remix Electronico)
TTITLE13=Todos Me Miran
TTITLE14=Cinco Minutos (Manny Lopez Minutelicious Radio Remix)
TTITLE15=Cinco Minutos (Version Pasito Duranguense) (Con La Participacion De L
TTITLE15=os Horoscopos De Durango)
TTITLE16=Valeria
TTITLE17=Ingrato
TTITLE18=Sufran Con Lo Que Yo Gozo (Con La Participacion De Celso Piña)
TTITLE19=El Secreto
EXTD=Gloria Trevi - Una Rosa Blu [Deluxe Edition]
EXTT0=
EXTT1=
EXTT2=
EXTT3=
EXTT4=
EXTT5=
EXTT6=
EXTT7=
EXTT8=
EXTT9=
EXTT10=
EXTT11=
EXTT12=
EXTT13=
EXTT14=
EXTT15=
EXTT16=
EXTT17=
EXTT18=
EXTT19=
PLAYORDER=
